<svg width="651" height="151" viewBox="0 0 651 151" fill="none" xmlns="http://www.w3.org/2000/svg">
<path d="M224.696 123.716V77.1176C224.696 76.1046 224.696 75.0257 224.731 73.876L206.989 123.695H192.293L174.173 73.9519C174.224 76.0387 174.247 78.1171 174.244 80.187V123.695H156.996V46.4287H182.484L198.784 92.3024C199.409 94.0414 199.946 95.7416 200.393 97.4029C200.932 95.5187 201.487 93.7814 202.042 92.2062L218.392 46.4287H243.255V123.716H224.696Z" fill="#092F68"/>
<path d="M268.528 125.017C263.157 125.017 258.769 123.437 255.486 120.312C252.203 117.187 250.504 112.871 250.504 107.538C250.504 96.5467 257.029 90.0685 269.9 88.2907L283.042 86.523C282.644 82.0962 280.132 80.1107 275.019 80.1107C269.063 80.1107 263.359 81.9544 258.073 85.5961L255.708 87.2271V71.5256L256.48 71.09C259.001 69.6768 262.355 68.5271 266.48 67.666C269.945 66.8912 273.477 66.4636 277.026 66.3896C284.782 66.3896 290.728 68.4157 294.677 72.4119C298.626 76.4082 300.663 82.39 300.663 90.1952V123.736H283.012V118.853C279.315 122.935 274.459 125.017 268.528 125.017ZM274.832 99.6921C268.528 100.523 267.802 103.552 267.802 105.77C267.764 106.455 267.88 107.139 268.142 107.772C268.404 108.405 268.805 108.971 269.315 109.427C270.374 110.379 271.872 110.865 273.768 110.865C275.019 110.9 276.263 110.662 277.414 110.168C278.565 109.674 279.595 108.936 280.435 108.004C282.222 105.998 283.174 103.38 283.093 100.69V98.6284L274.832 99.6921Z" fill="#092F68"/>
<path d="M327.468 42.209H309.076V123.715H327.468V42.209Z" fill="#092F68"/>
<path d="M350.781 125.018C345.41 125.018 341.022 123.438 337.739 120.313C334.456 117.188 332.756 112.872 332.756 107.539C332.756 96.5476 339.282 90.0695 352.152 88.2916L365.295 86.5138C364.897 82.087 362.385 80.1015 357.271 80.1015C351.31 80.1015 345.611 81.9452 340.326 85.5869L337.956 87.2179V71.5163L338.732 71.0808C341.254 69.6727 344.608 68.5229 348.733 67.6619C352.197 66.8868 355.73 66.4592 359.278 66.3855C367.035 66.3855 372.981 68.4115 376.93 72.4078C380.878 76.4041 382.916 82.3858 382.916 90.191V123.731H365.234V118.849C361.573 122.936 356.716 125.018 350.781 125.018ZM357.085 99.693C350.781 100.524 350.024 103.552 350.024 105.771C349.986 106.456 350.103 107.14 350.365 107.773C350.627 108.406 351.027 108.972 351.537 109.428C352.601 110.38 354.099 110.866 355.995 110.866C357.246 110.901 358.489 110.663 359.639 110.169C360.789 109.675 361.819 108.937 362.657 108.005C364.447 106 365.398 103.381 365.315 100.691V98.6293L357.085 99.693Z" fill="#092F68"/>
<path d="M426.423 123.716V92.6015C426.423 82.4715 422.03 81.2762 418.727 81.2762C417.548 81.2455 416.378 81.4909 415.31 81.9929C414.243 82.4949 413.306 83.2397 412.574 84.1683C410.885 86.1589 410.052 88.7724 410.052 91.9279V123.696H391.609V67.6615H410.052V73.1924C414.011 68.6593 419.266 66.3699 425.717 66.3699C434.421 66.3699 444.795 70.4219 444.795 89.7449V123.716H426.423Z" fill="#092F68"/>
<path d="M453.103 123.715V67.6608H471.495V123.715H453.103ZM462.392 61.7398C459.655 61.8236 456.993 60.8356 454.969 58.9845C454 58.1173 453.229 57.0512 452.707 55.8583C452.184 54.6654 451.924 53.3736 451.943 52.0707C451.909 50.7656 452.163 49.4692 452.686 48.274C453.209 47.0788 453.988 46.0145 454.969 45.157C456.92 43.4248 459.417 42.5435 462.392 42.5435C465.418 42.5435 467.97 43.445 469.901 45.2178C470.861 46.076 471.624 47.1331 472.138 48.3162C472.652 49.4994 472.904 50.7803 472.877 52.0707C472.902 53.3791 472.645 54.6774 472.123 55.8762C471.6 57.0751 470.825 58.1459 469.851 59.0148C467.806 60.8521 465.135 61.8279 462.392 61.7398Z" fill="#092F68"/>
<path d="M480.694 148.114V67.6615H499.132V73.081C503.217 68.6238 508.522 66.3699 514.942 66.3699C522.104 66.3699 527.803 68.9378 531.872 74.0028C535.862 78.9716 537.889 85.7688 537.889 94.2021C537.889 103.375 535.554 110.861 530.955 116.453C526.279 122.131 520.076 125.018 512.512 125.018C507.055 125.018 502.566 123.29 499.132 119.866V148.114H480.694ZM509.264 81.2964C507.846 81.2549 506.438 81.5475 505.153 82.1509C503.869 82.7543 502.743 83.6517 501.865 84.771C499.893 87.1617 498.895 90.3172 498.895 94.1565V98.7555C498.895 102.139 499.803 104.92 501.588 107.022C502.409 108.015 503.447 108.805 504.62 109.332C505.793 109.859 507.071 110.108 508.356 110.061C511.77 110.061 514.236 108.83 516.128 106.191C518.074 103.466 519.063 99.4747 519.063 94.3287C519.063 85.4396 515.951 81.2964 509.264 81.2964Z" fill="#E87207"/>
<path d="M557.196 125.018C551.82 125.018 547.433 123.438 544.15 120.313C540.867 117.188 539.167 112.872 539.167 107.539C539.167 96.5476 545.693 90.0695 558.563 88.2916L571.711 86.5138C571.307 82.087 568.801 80.1015 563.687 80.1015C557.726 80.1015 552.022 81.9452 546.742 85.5869L544.372 87.2179V71.5163L545.143 71.0808C547.665 69.6727 551.018 68.5229 555.144 67.6619C558.608 66.887 562.141 66.4595 565.689 66.3855C573.446 66.3855 579.392 68.4115 583.34 72.4078C587.289 76.4041 589.322 82.3858 589.322 90.191V123.731H571.67V118.849C567.984 122.936 563.127 125.018 557.196 125.018ZM563.495 99.693C557.196 100.524 556.465 103.552 556.465 105.771C556.427 106.456 556.544 107.14 556.806 107.773C557.068 108.406 557.468 108.972 557.978 109.428C559.037 110.38 560.54 110.866 562.436 110.866C563.687 110.901 564.93 110.663 566.08 110.169C567.23 109.675 568.26 108.937 569.098 108.005C570.888 106 571.839 103.381 571.756 100.691V98.6293L563.495 99.693Z" fill="#E87207"/>
<path d="M604.355 148.59C600.215 148.59 596.917 148.139 594.562 147.248L593.583 146.878V130.797L595.842 132.088C597.688 133.137 599.774 133.68 601.894 133.663C605.51 133.663 607.886 132.012 609.378 128.457L612.046 122.09L590.103 67.6614H610.548L621.19 101.946C621.255 102.159 621.321 102.372 621.381 102.585C621.437 102.412 621.487 102.235 621.543 102.078L632.431 67.6816H651L628.462 127.499C623.207 141.489 615.087 148.59 604.355 148.59Z" fill="#E87207"/>
<path d="M89.8272 88.4435C89.8272 103.532 103.787 115.795 120.999 115.795C124.769 115.8 128.515 115.198 132.094 114.012V137.017C132.089 139.884 130.95 142.632 128.928 144.656C126.906 146.68 124.167 147.814 121.312 147.81H53.6322C65.5965 131.049 72.2142 111.035 72.6104 90.4157C73.0066 69.796 67.1627 49.541 55.8512 32.3284H121.312C124.169 32.3284 126.909 33.4682 128.929 35.4971C130.949 37.5261 132.084 40.2779 132.084 43.1472V62.9007C128.505 61.7147 124.759 61.1127 120.989 61.1178C103.787 61.1128 89.8272 73.3549 89.8272 88.4435Z" fill="#092F68" stroke="#E87207" stroke-width="0.5" stroke-miterlimit="10"/>
<path d="M72.6336 88.4435C72.6664 109.746 66.0175 130.518 53.6308 147.81H11.7723C10.3579 147.811 8.95721 147.532 7.65029 146.989C6.34337 146.446 5.1558 145.649 4.15543 144.645C3.15507 143.641 2.36151 142.448 1.82009 141.136C1.27867 139.824 1 138.417 1 136.997V43.132C1.004 40.2688 2.13792 37.524 4.15332 35.4989C6.16872 33.4738 8.90124 32.3337 11.7521 32.3284H55.8499C66.8237 48.9658 72.6623 68.4868 72.6336 88.4435Z" fill="#E87207" stroke="#E87207" stroke-width="0.5" stroke-miterlimit="10"/>
<path d="M132.099 71.2179C128.647 69.5157 124.85 68.6385 121.004 68.655C108.532 68.655 98.4308 77.5137 98.4308 88.444C98.4308 99.3742 108.517 108.233 121.004 108.233C124.85 108.249 128.647 107.372 132.099 105.67C138.943 102.277 143.562 95.8338 143.562 88.449C143.562 81.0643 138.958 74.6115 132.099 71.2179ZM121.352 96.7202C119.649 96.7252 117.983 96.2223 116.565 95.2754C115.148 94.3284 114.042 92.9799 113.388 91.4009C112.734 89.8218 112.561 88.0834 112.892 86.4059C113.223 84.7283 114.043 83.1872 115.247 81.9779C116.451 80.7687 117.985 79.9457 119.656 79.6133C121.326 79.2809 123.057 79.454 124.629 80.1108C126.201 80.7675 127.544 81.8783 128.487 83.3024C129.43 84.7264 129.931 86.3995 129.926 88.1097C129.926 90.3933 129.022 92.5835 127.414 94.1982C125.807 95.813 123.626 96.7202 121.352 96.7202Z" fill="#092F68" stroke="#E87207" stroke-width="0.5" stroke-miterlimit="10"/>
<path d="M96.3459 8.42113L75.2805 15.4817L49.4543 24.1378L79.1436 3.30042L79.8547 2.79392C81.2605 1.87824 82.8547 1.29426 84.5174 1.08581C86.1801 0.877364 87.8683 1.04986 89.4551 1.59036C91.042 2.13086 92.4863 3.02533 93.6798 4.20661C94.8732 5.3879 95.7847 6.82532 96.3459 8.41101V8.42113Z" fill="#E87207" stroke="#E87207" stroke-width="0.25" stroke-miterlimit="10"/>
<path d="M117.781 27.2637C117.781 27.4561 117.781 27.6486 117.781 27.836H65.5388L81.6165 22.4468L95.4551 17.8073L101.779 15.6851H101.845L104.124 14.9202C104.837 14.7658 105.564 14.6877 106.293 14.6873C112.642 14.6822 117.781 20.3246 117.781 27.2637Z" fill="#E87207" stroke="#E87207" stroke-width="0.2" stroke-miterlimit="10"/>
<path d="M49.0637 68.6701C49.3159 68.7726 49.5276 68.9556 49.6661 69.1908C49.8046 69.426 49.8623 69.7004 49.8303 69.9718C49.8303 70.8734 49.8303 71.7749 49.8303 72.6714C49.8303 73.6844 49.4924 74.0035 48.514 74.0035H41.3728C41.7236 74.533 42.0403 75.0846 42.3209 75.6547C42.679 76.4854 42.9715 77.3515 43.2539 78.2176C43.3497 78.5266 43.4607 78.6633 43.8137 78.6583C45.3973 78.6583 46.9859 78.6583 48.5695 78.6583C49.5478 78.6583 49.8706 78.9875 49.8756 79.9549C49.8807 80.9223 49.8756 81.8746 49.8756 82.8318C49.8756 83.627 49.5024 83.9867 48.7056 83.9917C47.1019 83.9917 45.5032 83.9917 43.8994 83.9917C43.5817 83.9917 43.4506 84.0576 43.3951 84.402C42.9326 87.1723 41.5022 89.6863 39.3606 91.493C37.3284 93.1784 34.8957 94.3058 32.3001 94.765C31.7403 94.8764 31.1754 94.9575 30.5602 95.0638C30.6711 95.2006 30.7569 95.3171 30.8527 95.4184C35.8152 100.823 40.4701 106.485 45.1199 112.133C45.2851 112.281 45.3991 112.478 45.4454 112.696C45.4916 112.914 45.4677 113.14 45.3771 113.343C45.2782 113.551 45.1169 113.722 44.9159 113.832C44.7149 113.942 44.4846 113.985 44.2575 113.956C42.3159 113.956 40.3793 113.956 38.4377 113.956C38.2045 113.967 37.9723 113.921 37.7606 113.822C37.549 113.724 37.3643 113.575 37.2222 113.389C33.228 108.709 29.2254 104.034 25.2144 99.364C24.0645 98.0268 22.8491 96.7403 21.6438 95.4488C21.472 95.2701 21.3386 95.0578 21.2518 94.8252C21.1651 94.5926 21.1268 94.3445 21.1395 94.0964C21.1697 92.9315 21.1395 91.7665 21.1395 90.6016C21.115 90.4315 21.1303 90.2581 21.1842 90.0951C21.2381 89.9321 21.3292 89.784 21.4501 89.6625C21.5711 89.541 21.7186 89.4496 21.8809 89.3954C22.0432 89.3413 22.2159 89.3259 22.3851 89.3505C24.2057 89.3201 26.0263 89.3505 27.8419 89.2391C29.8965 89.1791 31.8877 88.5113 33.5659 87.3194C34.5974 86.569 35.3584 85.5026 35.7345 84.2804C35.7577 84.2108 35.7762 84.1398 35.79 84.0677C35.7877 84.0261 35.7792 83.9852 35.7648 83.9461H22.4658C21.4068 83.9461 21.0941 83.6372 21.0941 82.5887C21.0941 81.6872 21.0941 80.7856 21.0941 79.8891C21.0941 78.9926 21.4269 78.6127 22.3751 78.6127H35.3361C35.2201 78.405 35.1495 78.243 35.0537 78.1062C34.3265 77.0392 33.2759 76.2362 32.058 75.8168C30.2923 75.2021 28.4284 74.9222 26.5609 74.9912H22.5264C21.4622 74.9912 21.1143 74.6468 21.1143 73.5983C21.1143 72.3878 21.1143 71.1773 21.1143 69.9718C21.078 69.7011 21.1296 69.4258 21.2613 69.1868C21.393 68.9477 21.5978 68.7577 21.8455 68.6448L49.0637 68.6701Z" fill="white"/>
<path d="M155.108 136.391V134.573H155.744C155.87 134.573 155.975 134.595 156.057 134.639C156.139 134.682 156.201 134.74 156.241 134.814C156.281 134.887 156.301 134.967 156.301 135.056C156.301 135.134 156.287 135.199 156.259 135.25C156.232 135.301 156.196 135.341 156.151 135.37C156.107 135.4 156.059 135.422 156.006 135.436V135.454C156.062 135.457 156.118 135.477 156.174 135.512C156.23 135.548 156.277 135.599 156.315 135.665C156.353 135.731 156.372 135.813 156.372 135.908C156.372 136 156.351 136.082 156.31 136.154C156.269 136.227 156.203 136.285 156.114 136.327C156.024 136.37 155.908 136.391 155.765 136.391H155.108ZM155.328 136.196H155.765C155.909 136.196 156.011 136.168 156.071 136.113C156.132 136.056 156.163 135.988 156.163 135.908C156.163 135.847 156.147 135.79 156.116 135.738C156.084 135.685 156.04 135.643 155.982 135.612C155.924 135.58 155.855 135.564 155.776 135.564H155.328V136.196ZM155.328 135.372H155.737C155.803 135.372 155.863 135.359 155.916 135.333C155.97 135.307 156.012 135.27 156.044 135.223C156.076 135.176 156.092 135.12 156.092 135.056C156.092 134.976 156.064 134.908 156.008 134.853C155.953 134.797 155.864 134.768 155.744 134.768H155.328V135.372ZM156.734 136.391V134.573H157.348C157.49 134.573 157.607 134.597 157.698 134.646C157.789 134.694 157.857 134.76 157.901 134.844C157.944 134.928 157.966 135.024 157.966 135.131C157.966 135.238 157.944 135.333 157.901 135.416C157.857 135.499 157.79 135.564 157.699 135.611C157.608 135.658 157.493 135.681 157.352 135.681H156.855V135.482H157.345C157.442 135.482 157.52 135.468 157.579 135.44C157.639 135.411 157.682 135.371 157.709 135.319C157.736 135.266 157.75 135.204 157.75 135.131C157.75 135.058 157.736 134.994 157.709 134.94C157.682 134.885 157.638 134.843 157.578 134.814C157.518 134.784 157.439 134.768 157.341 134.768H156.954V136.391H156.734ZM157.59 135.575L158.037 136.391H157.782L157.341 135.575H157.59ZM158.408 136.391H158.177L158.844 134.573H159.072L159.739 136.391H159.509L158.965 134.861H158.951L158.408 136.391ZM158.493 135.681H159.423V135.876H158.493V135.681ZM161.464 134.573V136.391H161.251L160.26 134.964H160.243V136.391H160.023V134.573H160.236L161.23 136.004H161.248V134.573H161.464ZM162.466 136.391H161.905V134.573H162.491C162.667 134.573 162.818 134.61 162.944 134.682C163.069 134.755 163.165 134.858 163.232 134.994C163.299 135.129 163.332 135.291 163.332 135.479C163.332 135.668 163.299 135.831 163.231 135.968C163.164 136.104 163.065 136.209 162.936 136.282C162.807 136.355 162.651 136.391 162.466 136.391ZM162.125 136.196H162.452C162.602 136.196 162.727 136.167 162.825 136.109C162.924 136.051 162.998 135.968 163.047 135.861C163.095 135.754 163.119 135.627 163.119 135.479C163.119 135.332 163.095 135.206 163.047 135.1C163 134.993 162.928 134.911 162.833 134.855C162.737 134.797 162.619 134.768 162.477 134.768H162.125V136.196ZM165.939 135.482C165.939 135.674 165.904 135.84 165.835 135.979C165.766 136.119 165.671 136.227 165.55 136.303C165.429 136.378 165.291 136.416 165.136 136.416C164.981 136.416 164.843 136.378 164.723 136.303C164.602 136.227 164.507 136.119 164.438 135.979C164.368 135.84 164.334 135.674 164.334 135.482C164.334 135.291 164.368 135.125 164.438 134.985C164.507 134.845 164.602 134.738 164.723 134.662C164.843 134.586 164.981 134.548 165.136 134.548C165.291 134.548 165.429 134.586 165.55 134.662C165.671 134.738 165.766 134.845 165.835 134.985C165.904 135.125 165.939 135.291 165.939 135.482ZM165.726 135.482C165.726 135.325 165.7 135.192 165.647 135.084C165.595 134.975 165.524 134.893 165.435 134.838C165.346 134.782 165.246 134.754 165.136 134.754C165.026 134.754 164.927 134.782 164.837 134.838C164.748 134.893 164.678 134.975 164.625 135.084C164.573 135.192 164.547 135.325 164.547 135.482C164.547 135.64 164.573 135.773 164.625 135.881C164.678 135.989 164.748 136.071 164.837 136.127C164.927 136.182 165.026 136.21 165.136 136.21C165.246 136.21 165.346 136.182 165.435 136.127C165.524 136.071 165.595 135.989 165.647 135.881C165.7 135.773 165.726 135.64 165.726 135.482ZM166.309 136.391V134.573H167.399V134.768H166.529V135.383H167.318V135.578H166.529V136.391H166.309ZM169.921 134.573V136.391H169.708L168.717 134.964H168.7V136.391H168.48V134.573H168.693L169.687 136.004H169.705V134.573H169.921ZM170.923 136.391H170.362V134.573H170.948C171.124 134.573 171.275 134.61 171.401 134.682C171.526 134.755 171.622 134.858 171.689 134.994C171.756 135.129 171.789 135.291 171.789 135.479C171.789 135.668 171.756 135.831 171.688 135.968C171.621 136.104 171.523 136.209 171.393 136.282C171.264 136.355 171.108 136.391 170.923 136.391ZM170.582 136.196H170.909C171.059 136.196 171.184 136.167 171.283 136.109C171.381 136.051 171.455 135.968 171.504 135.861C171.552 135.754 171.576 135.627 171.576 135.479C171.576 135.332 171.552 135.206 171.504 135.1C171.457 134.993 171.385 134.911 171.29 134.855C171.194 134.797 171.076 134.768 170.934 134.768H170.582V136.196ZM173.423 136.391H172.862V134.573H173.448C173.624 134.573 173.775 134.61 173.901 134.682C174.026 134.755 174.122 134.858 174.189 134.994C174.256 135.129 174.289 135.291 174.289 135.479C174.289 135.668 174.256 135.831 174.188 135.968C174.121 136.104 174.023 136.209 173.893 136.282C173.764 136.355 173.608 136.391 173.423 136.391ZM173.082 136.196H173.409C173.559 136.196 173.684 136.167 173.783 136.109C173.881 136.051 173.955 135.968 174.004 135.861C174.052 135.754 174.076 135.627 174.076 135.479C174.076 135.332 174.052 135.206 174.004 135.1C173.957 134.993 173.885 134.911 173.79 134.855C173.694 134.797 173.576 134.768 173.434 134.768H173.082V136.196ZM174.879 134.573V136.391H174.659V134.573H174.879ZM176.563 135.141C176.544 135.082 176.518 135.028 176.486 134.981C176.455 134.933 176.417 134.892 176.373 134.858C176.33 134.824 176.281 134.799 176.226 134.781C176.171 134.763 176.111 134.754 176.045 134.754C175.937 134.754 175.839 134.782 175.751 134.838C175.663 134.893 175.593 134.975 175.541 135.084C175.488 135.192 175.462 135.325 175.462 135.482C175.462 135.64 175.489 135.773 175.541 135.881C175.594 135.989 175.665 136.071 175.755 136.127C175.845 136.182 175.947 136.21 176.059 136.21C176.163 136.21 176.255 136.188 176.334 136.144C176.414 136.099 176.476 136.035 176.521 135.954C176.566 135.871 176.588 135.775 176.588 135.663L176.656 135.678H176.109V135.482H176.801V135.678C176.801 135.827 176.769 135.958 176.705 136.068C176.642 136.179 176.554 136.265 176.443 136.326C176.331 136.386 176.203 136.416 176.059 136.416C175.898 136.416 175.757 136.378 175.635 136.303C175.513 136.227 175.419 136.119 175.351 135.979C175.283 135.84 175.249 135.674 175.249 135.482C175.249 135.338 175.269 135.209 175.307 135.094C175.346 134.979 175.401 134.881 175.472 134.8C175.543 134.718 175.627 134.656 175.724 134.613C175.821 134.57 175.928 134.548 176.045 134.548C176.141 134.548 176.23 134.563 176.313 134.592C176.396 134.62 176.471 134.661 176.536 134.713C176.601 134.766 176.656 134.828 176.7 134.901C176.744 134.973 176.774 135.053 176.791 135.141H176.563ZM177.398 134.573V136.391H177.178V134.573H177.398ZM177.74 134.768V134.573H179.104V134.768H178.532V136.391H178.312V134.768H177.74ZM179.306 136.391H179.075L179.743 134.573H179.97L180.638 136.391H180.407L179.864 134.861H179.849L179.306 136.391ZM179.391 135.681H180.322V135.876H179.391V135.681ZM180.921 136.391V134.573H181.141V136.196H181.986V136.391H180.921Z" fill="#E87207"/>
</svg>
